HIERARCHY
ROOT Hips
{
	OFFSET -0.001795 -0.223333 0.028219
	CHANNELS 6 Xposition Yposition Zposition Zrotation Yrotation Xrotation 
	JOINT LeftUpLeg
	{
		OFFSET 0.069520 -0.091406 -0.006815
		CHANNELS 3 Zrotation Yrotation Xrotation
		JOINT LeftLeg
		{
			OFFSET 0.034277 -0.375199 -0.004496
			CHANNELS 3 Zrotation Yrotation Xrotation
			JOINT LeftFoot
			{
				OFFSET -0.013596 -0.397961 -0.043693
				CHANNELS 3 Zrotation Yrotation Xrotation
				JOINT LeftToe
				{
					OFFSET 0.026358 -0.055791 0.119288
					CHANNELS 3 Zrotation Yrotation Xrotation
					End Site
					{
						OFFSET 0.000000 0.000000 0.000000
					}
				}
			}
		}
	}
	JOINT RightUpLeg
	{
		OFFSET -0.067670 -0.090522 -0.004320
		CHANNELS 3 Zrotation Yrotation Xrotation
		JOINT RightLeg
		{
			OFFSET -0.038290 -0.382569 -0.008850
			CHANNELS 3 Zrotation Yrotation Xrotation
			JOINT RightFoot
			{
				OFFSET 0.015774 -0.398415 -0.042312
				CHANNELS 3 Zrotation Yrotation Xrotation
				JOINT RightToe
				{
					OFFSET -0.025372 -0.048144 0.123348
					CHANNELS 3 Zrotation Yrotation Xrotation
					End Site
					{
						OFFSET 0.000000 0.000000 0.000000
					}
				}
			}
		}
	}
	JOINT Spine
	{
		OFFSET -0.002533 0.108963 -0.026696
		CHANNELS 3 Zrotation Yrotation Xrotation
		JOINT Spine1
		{
			OFFSET 0.005487 0.135180 0.001092
			CHANNELS 3 Zrotation Yrotation Xrotation
			JOINT Spine2
			{
				OFFSET 0.001457 0.052922 0.025425
				CHANNELS 3 Zrotation Yrotation Xrotation
				JOINT Neck
				{
					OFFSET -0.002778 0.213870 -0.042857
					CHANNELS 3 Zrotation Yrotation Xrotation
					JOINT Head
					{
						OFFSET 0.005152 0.064970 0.051349
						CHANNELS 3 Zrotation Yrotation Xrotation
						End Site
						{
							OFFSET 0.000000 0.000000 0.000000
						}
					}
				}
				JOINT LeftShoulder
				{
					OFFSET 0.078845 0.121749 -0.034090
					CHANNELS 3 Zrotation Yrotation Xrotation
					JOINT LeftArm
					{
						OFFSET 0.090977 0.030469 -0.008868
						CHANNELS 3 Zrotation Yrotation Xrotation
						JOINT LeftForeArm
						{
							OFFSET 0.259612 -0.012772 -0.027456
							CHANNELS 3 Zrotation Yrotation Xrotation
							JOINT LeftHand
							{
								OFFSET 0.249234 0.008986 -0.001171
								CHANNELS 3 Zrotation Yrotation Xrotation
								End Site
								{
									OFFSET 0.000000 0.000000 0.000000
								}
							}
						}
					}
				}
				JOINT RightShoulder
				{
					OFFSET -0.081759 0.118833 -0.038615
					CHANNELS 3 Zrotation Yrotation Xrotation
					JOINT RightArm
					{
						OFFSET -0.096012 0.032551 -0.009143
						CHANNELS 3 Zrotation Yrotation Xrotation
						JOINT RightForeArm
						{
							OFFSET -0.253742 -0.013329 -0.021401
							CHANNELS 3 Zrotation Yrotation Xrotation
							JOINT RightHand
							{
								OFFSET -0.255298 0.007772 -0.005559
								CHANNELS 3 Zrotation Yrotation Xrotation
								End Site
								{
									OFFSET 0.000000 0.000000 0.000000
								}
							}
						}
					}
				}
			}
		}
	}
}
MOTION
Frames: 5
Frame Time: 0.050000
0.070133 0.965835 -0.048761 4.588475 -8.526251 18.960263 3.566294 -1.205322 -23.397416 -2.369083 0.287173 -0.277869 0.008426 6.300671 24.026953 0.000000 0.000000 0.000000 -14.023817 1.026657 -23.459655 7.419097 -0.621183 1.505983 -10.653056 -24.716933 25.579652 0.000000 0.000000 0.000000 9.952008 -4.536130 38.240205 -0.236218 0.397892 -20.067836 1.891242 12.301022 32.198192 20.668166 -6.404914 -36.468606 0.000000 0.000000 0.000000 6.769519 -25.207902 7.722864 -53.868721 -61.595812 20.406871 119.756765 -72.079272 -94.526347 0.000000 0.000000 0.000000 4.111645 8.657767 4.077344 40.756852 51.254345 12.170418 -63.101348 40.001835 -17.705530 0.000000 0.000000 0.000000 
0.067200 0.965133 -0.048618 4.181715 -8.376536 18.708251 4.014972 -1.120279 -22.937731 -2.754493 0.333128 -0.279634 0.013517 6.261643 23.750779 0.000000 0.000000 0.000000 -12.983140 1.112731 -22.664853 7.096487 -0.585732 1.108197 -10.675833 -24.733921 25.244225 0.000000 0.000000 0.000000 9.244188 -4.276792 38.420723 -0.287145 0.422142 -20.375341 2.682082 13.164625 31.766509 20.065157 -5.931325 -36.568354 0.000000 0.000000 0.000000 4.720631 -24.339817 7.753035 -52.601748 -59.091507 17.973778 115.883536 -74.067891 -93.122268 0.000000 0.000000 0.000000 4.890102 9.703817 4.705526 41.882266 54.284751 14.264140 -60.188788 41.129388 -17.186655 0.000000 0.000000 0.000000 
0.063862 0.964873 -0.048420 4.116636 -7.785206 18.647424 4.064299 -1.141181 -23.042890 -2.712555 0.321429 0.281328 -0.359831 5.709935 23.044650 0.000000 0.000000 0.000000 -12.607665 1.103738 -22.445343 7.404519 -0.623637 1.126021 -10.769718 -24.827722 24.259714 0.000000 0.000000 0.000000 8.500925 -4.057166 38.368517 -0.261936 0.437295 -20.645312 3.075385 14.021905 31.404199 20.032652 -5.591897 -37.179212 0.000000 0.000000 0.000000 3.737088 -24.239510 7.815468 -51.387870 -57.367005 16.124411 107.115815 -76.046872 -86.813476 0.000000 0.000000 0.000000 4.337178 10.905092 5.207634 42.255335 57.065634 16.152526 -56.128048 40.701634 -15.484972 0.000000 0.000000 0.000000 
0.060338 0.964779 -0.047873 4.031426 -7.255379 18.367240 4.091844 -1.148803 -22.580481 -2.780397 0.329849 -0.188660 -0.791228 5.226477 23.088489 0.000000 0.000000 0.000000 -11.968121 1.117738 -21.883447 7.117706 -0.612289 1.344004 -10.645764 -24.630589 23.289022 0.000000 0.000000 0.000000 7.949024 -3.952957 38.991418 -0.135314 0.427310 -21.060754 2.982310 14.645422 30.619562 20.733774 -5.978849 -36.389290 0.000000 0.000000 0.000000 2.084931 -23.734418 7.785908 -50.241641 -55.869159 14.684640 93.118931 -78.280857 -75.786516 0.000000 0.000000 0.000000 3.905030 12.433142 5.847686 42.062979 60.453218 18.076385 -52.035317 37.592230 -12.742601 0.000000 0.000000 0.000000 
0.056767 0.964773 -0.047136 4.259264 -6.161105 18.270177 3.905210 -1.230646 -22.482070 -2.600629 0.303308 -0.257339 -1.332878 4.623982 22.813232 0.000000 0.000000 0.000000 -11.707585 1.059289 -21.204744 6.712261 -0.584843 0.820533 -10.643207 -24.479526 22.984449 0.000000 0.000000 0.000000 7.694601 -4.042852 39.308872 -0.792512 0.614657 -21.647738 3.268316 14.826380 30.312845 20.977034 -6.001942 -36.354932 0.000000 0.000000 0.000000 0.868126 -24.707051 8.172498 -49.338179 -55.289127 13.937658 77.105096 -79.150518 -61.810082 0.000000 0.000000 0.000000 3.196976 13.167918 6.059709 41.619108 62.588110 19.226300 -48.060672 34.442483 -10.374887 0.000000 0.000000 0.000000 
